<svg width="12" height="12" viewBox="0 0 12 12" fill="none" xmlns="http://www.w3.org/2000/svg">
<path d="M10.7478 0.820824C10.5039 0.576978 10.1129 0.576978 9.86901 0.820824L5.93066 4.75917L1.99232 0.820824C1.74847 0.576978 1.3574 0.576978 1.11355 0.820824C0.869702 1.06467 0.869702 1.45575 1.11355 1.69959L5.0519 5.63794L1.11355 9.57629C0.869702 9.82014 0.869702 10.2112 1.11355 10.4551C1.23317 10.5747 1.3942 10.6391 1.55063 10.6391C1.70706 10.6391 1.86809 10.5793 1.98772 10.4551L5.92606 6.51671L9.86441 10.4551C9.98404 10.5747 10.1451 10.6391 10.3015 10.6391C10.4625 10.6391 10.619 10.5793 10.7386 10.4551C10.9824 10.2112 10.9824 9.82014 10.7386 9.57629L6.80943 5.63794L10.7478 1.69959C10.9916 1.45575 10.9916 1.06467 10.7478 0.820824Z" fill="#2F80ED" stroke="#212C65"/>
</svg>
