<svg width="189" height="35" viewBox="0 0 189 35" fill="none" xmlns="http://www.w3.org/2000/svg">
<path d="M12.7121 31.7312C14.4341 31.7488 16.129 31.3013 17.6177 30.4357C19.1065 29.5702 20.3339 28.3187 21.1705 26.8135C22.037 25.2882 22.4925 23.5641 22.4925 21.8098C22.4925 20.0556 22.037 18.3314 21.1705 16.8061C20.3225 15.2798 19.0834 14.0068 17.5806 13.1179C16.1248 12.2452 14.4586 11.7861 12.7613 11.7901C11.0339 11.7932 9.33784 12.2511 7.84367 13.1179C6.33584 13.9496 5.08874 15.184 4.24148 16.6832C3.40063 18.2369 2.97704 19.982 3.01207 21.7483C2.9767 23.0719 3.20891 24.3889 3.6948 25.6205C4.18068 26.8521 4.91023 27.973 5.83972 28.9158C6.73017 29.8323 7.80005 30.5554 8.98251 31.0398C10.165 31.5242 11.4346 31.7596 12.7121 31.7312ZM0 34.19V0H3.18418V13.7694C4.38468 12.229 5.90795 10.9701 7.64696 10.0812C9.33425 9.25606 11.1905 8.83514 13.0687 8.85178C14.7405 8.83017 16.3986 9.15676 17.9373 9.81079C19.4761 10.4648 20.8619 11.432 22.0065 12.6507C23.2078 13.8646 24.1532 15.3072 24.7868 16.8932C25.4203 18.4791 25.7291 20.1761 25.6948 21.8836C25.7306 23.5766 25.4222 25.2592 24.7882 26.8294C24.1542 28.3996 23.2078 29.8247 22.0065 31.0181C20.8497 32.2379 19.453 33.2052 17.9043 33.859C16.3555 34.5128 14.6882 34.8389 13.0072 34.817C11.1082 34.8382 9.23325 34.3906 7.54861 33.5138C5.82635 32.5745 4.34511 31.249 3.22107 29.6412V34.19H0Z" fill="white"/>
<path d="M43.3734 11.9504C41.6514 11.9328 39.9565 12.3803 38.4678 13.2459C36.979 14.1114 35.7516 15.3629 34.915 16.8681C34.0411 18.3842 33.5811 20.1034 33.5811 21.8534C33.5811 23.6033 34.0411 25.3225 34.915 26.8386C35.7591 28.3678 36.9991 29.6417 38.5049 30.5269C39.969 31.401 41.6435 31.86 43.3488 31.8546C45.0746 31.8519 46.7697 31.3984 48.2664 30.5392C49.7743 29.7074 51.0213 28.4731 51.8686 26.9739C52.7095 25.4246 53.1332 23.6834 53.098 21.921C53.1317 20.5995 52.8987 19.2848 52.4129 18.0554C51.927 16.826 51.1983 15.7072 50.2704 14.7658C49.3755 13.8297 48.2961 13.0896 47.1005 12.5923C45.9048 12.095 44.6189 11.8513 43.3242 11.8767L43.3734 11.9504ZM56.024 9.41784V34.1905H52.9382V29.9736C51.7266 31.5081 50.2008 32.7657 48.4631 33.6619C46.7709 34.4855 44.9111 34.9063 43.0291 34.8913C41.3541 34.9146 39.6927 34.5876 38.1514 33.9313C36.6101 33.275 35.223 32.3038 34.079 31.0801C32.875 29.8656 31.928 28.4211 31.2943 26.8327C30.6607 25.2443 30.3534 23.5446 30.3907 21.8349C30.3568 20.1459 30.6662 18.4675 31.3002 16.9015C31.9342 15.3356 32.8795 13.9147 34.079 12.725C35.2358 11.5051 36.6325 10.5379 38.1812 9.88412C39.73 9.23034 41.3973 8.90415 43.0783 8.92607C44.9938 8.89774 46.8864 9.34553 48.5861 10.2292C50.3067 11.166 51.7845 12.4922 52.9013 14.1019V9.52848L56.024 9.41784Z" fill="white"/>
<path d="M97.4436 31.7312C99.1709 31.7524 100.871 31.3018 102.361 30.428C103.869 29.5537 105.104 28.2766 105.927 26.7398C106.8 25.2168 107.26 23.4917 107.26 21.736C107.26 19.9804 106.8 18.2553 105.927 16.7323C105.088 15.2029 103.852 13.9286 102.349 13.0441C100.892 12.1732 99.2267 11.7142 97.5297 11.7163C95.8023 11.7194 94.1062 12.1773 92.612 13.0441C91.1018 13.8727 89.8539 15.1078 89.0098 16.6094C88.169 18.1631 87.7454 19.9083 87.7804 21.6746C87.7434 22.9972 87.9737 24.3137 88.4574 25.5453C88.9412 26.7769 89.6685 27.8982 90.5957 28.8421C91.4788 29.7665 92.5422 30.4999 93.72 30.9968C94.8979 31.4938 96.1652 31.7437 97.4436 31.7312ZM84.7314 34.19V0H87.9156V13.7694C89.1161 12.229 90.6394 10.9701 92.3784 10.0812C94.7478 8.94872 97.4135 8.59103 99.9976 9.05886C102.582 9.52668 104.953 10.7963 106.775 12.6876C107.973 13.8985 108.917 15.3372 109.55 16.9187C110.184 18.5002 110.494 20.1925 110.463 21.8959C110.499 23.5889 110.19 25.2715 109.556 26.8417C108.922 28.4119 107.976 29.837 106.775 31.0304C105.618 32.2502 104.221 33.2175 102.673 33.8713C101.124 34.525 99.4565 34.8512 97.7755 34.8293C95.8763 34.8521 94.001 34.4044 92.3169 33.5261C90.5947 32.5868 89.1134 31.2613 87.9894 29.6535V34.19H84.7314Z" fill="white"/>
<path d="M137.99 21.5152C138.007 19.7932 137.56 18.0984 136.694 16.6096C135.829 15.1209 134.577 13.8934 133.072 13.0568C131.556 12.1829 129.837 11.7229 128.087 11.7229C126.337 11.7229 124.618 12.1829 123.102 13.0568C121.572 13.9 120.297 15.1402 119.413 16.6467C118.539 18.1063 118.08 19.7769 118.085 21.4783C118.089 23.204 118.542 24.899 119.401 26.396C120.225 27.9019 121.457 29.1459 122.954 29.9859C124.502 30.8305 126.244 31.2544 128.007 31.2153C129.33 31.2506 130.647 31.0184 131.879 30.5325C133.111 30.0466 134.231 29.3171 135.174 28.3876C136.109 27.4922 136.847 26.4124 137.342 25.2166C137.837 24.0209 138.079 22.7353 138.051 21.4414L137.99 21.5152ZM140.51 34.1413H115.737V31.08H119.979C118.44 29.8726 117.182 28.3458 116.291 26.605C115.156 24.2407 114.794 21.5798 115.255 18.9985C115.716 16.4172 116.977 14.0462 118.86 12.2208C120.074 11.0157 121.518 10.0679 123.107 9.43419C124.695 8.80044 126.395 8.49378 128.105 8.53257C129.796 8.49911 131.476 8.80869 133.044 9.4426C134.612 10.0765 136.035 11.0216 137.227 12.2208C138.441 13.3842 139.404 14.7841 140.055 16.3341C140.706 17.8841 141.033 19.5512 141.014 21.2324C141.06 23.1411 140.638 25.032 139.785 26.7402C138.847 28.4641 137.516 29.9425 135.9 31.0554H140.436L140.51 34.1413Z" fill="white"/>
<path d="M149.142 9.52789H152.387V13.1301C153.193 11.8815 154.233 10.8004 155.448 9.94589C156.44 9.27393 157.607 8.90644 158.805 8.8886C159.801 8.92162 160.771 9.21402 161.62 9.73689L159.973 12.4047C159.444 12.1549 158.872 12.0089 158.288 11.9744C157.14 12.0183 156.049 12.4871 155.227 13.2899C154.107 14.4009 153.326 15.8082 152.977 17.347C152.467 20.1606 152.269 23.022 152.387 25.8791V34.1899H149.142V9.52789Z" fill="white"/>
<path d="M65.8838 9.52789H69.1294V13.1301C69.9286 11.8762 70.9692 10.7938 72.1907 9.94589C73.1796 9.26796 74.348 8.89988 75.547 8.8886C76.5427 8.92496 77.5123 9.21711 78.3623 9.73689L76.7026 12.4047C76.1744 12.1535 75.6024 12.0073 75.0183 11.9744C73.8701 12.0183 72.7792 12.4871 71.9571 13.2899C70.8368 14.3991 70.0599 15.8076 69.7196 17.347C69.2091 20.1606 69.0112 23.022 69.1294 25.8791V34.1899H65.8838V9.52789Z" fill="white"/>
<path d="M176.397 11.9498C174.671 11.9365 172.973 12.3866 171.48 13.253C169.974 14.1308 168.741 15.4071 167.914 16.9412C167.04 18.4573 166.58 20.1765 166.58 21.9265C166.58 23.6764 167.04 25.3956 167.914 26.9118C168.755 28.4435 169.996 29.7182 171.504 30.6C172.964 31.4742 174.634 31.9333 176.336 31.9278C178.061 31.9244 179.756 31.471 181.253 30.6123C182.76 29.7834 184.004 28.5481 184.843 27.047C185.684 25.4975 186.107 23.7564 186.073 21.9941C186.106 20.6726 185.873 19.3579 185.388 18.1285C184.902 16.8992 184.173 15.7803 183.245 14.8389C182.35 13.9028 181.271 13.1627 180.075 12.6654C178.879 12.1681 177.594 11.9244 176.299 11.9498H176.397ZM188.999 9.49095V34.1899H185.864V29.973C184.648 31.508 183.118 32.7655 181.376 33.6612C179.685 34.4861 177.824 34.9069 175.942 34.8906C174.267 34.9132 172.606 34.5858 171.065 33.9296C169.524 33.2733 168.137 32.3026 166.992 31.0795C165.788 29.8654 164.84 28.4209 164.207 26.8325C163.573 25.244 163.266 23.5441 163.304 21.8343C163.27 20.1452 163.579 18.4668 164.213 16.9009C164.847 15.3349 165.793 13.914 166.992 12.7243C168.15 11.5029 169.549 10.5348 171.1 9.88099C172.651 9.22715 174.321 8.90179 176.004 8.92542C177.916 8.89551 179.805 9.34345 181.499 10.2286C183.226 11.1612 184.709 12.488 185.827 14.1013V9.52783L188.999 9.49095Z" fill="white"/>
</svg>
