<svg width="15" height="23" viewBox="0 0 15 23" fill="none" xmlns="http://www.w3.org/2000/svg">
<path fill-rule="evenodd" clip-rule="evenodd" d="M7.88072 22.001C9.61153 21.7432 11.1886 20.8621 12.3155 19.5234C13.4425 18.1846 14.0418 16.4804 14.0007 14.731V6.16102C14.0007 5.8958 13.8954 5.64145 13.7078 5.45391C13.5203 5.26638 13.2659 5.16102 13.0007 5.16102C12.7355 5.16102 12.4811 5.26638 12.2936 5.45391C12.1061 5.64145 12.0007 5.8958 12.0007 6.16102V15.001C12.0009 15.7425 11.8361 16.4748 11.5183 17.1448C11.2005 17.8148 10.7377 18.4057 10.1634 18.8747C9.58906 19.3437 8.9176 19.6792 8.19764 19.8567C7.47768 20.0342 6.72725 20.0493 6.00072 19.901C4.8506 19.6415 3.82498 18.9937 3.09646 18.0666C2.36794 17.1396 1.98099 15.9899 2.00072 14.811V5.00102C2.00032 4.55937 2.09743 4.12308 2.28513 3.7233C2.47283 3.32352 2.74649 2.97011 3.08655 2.68832C3.42662 2.40652 3.82471 2.20328 4.2524 2.09312C4.68009 1.98295 5.12683 1.96858 5.56072 2.05102C6.26409 2.20409 6.89227 2.59716 7.33748 3.1628C7.78269 3.72843 8.01718 4.43138 8.00072 5.15102V13.001C8.00072 13.2662 7.89536 13.5206 7.70783 13.7081C7.52029 13.8957 7.26593 14.001 7.00072 14.001C6.7355 14.001 6.48115 13.8957 6.29361 13.7081C6.10608 13.5206 6.00072 13.2662 6.00072 13.001V7.00102C6.00072 6.7358 5.89536 6.48145 5.70783 6.29391C5.52029 6.10638 5.26593 6.00102 5.00072 6.00102C4.7355 6.00102 4.48115 6.10638 4.29361 6.29391C4.10608 6.48145 4.00072 6.7358 4.00072 7.00102V13.001C3.99287 13.4469 4.08451 13.8889 4.26897 14.2948C4.45342 14.7008 4.72607 15.0606 5.06705 15.3479C5.40804 15.6353 5.80879 15.843 6.24016 15.956C6.67153 16.0689 7.12265 16.0843 7.56072 16.001C8.27371 15.8483 8.90972 15.4483 9.35625 14.8718C9.80278 14.2954 10.0311 13.5796 10.0007 12.851V5.00102C10.0009 4.2595 9.83609 3.52723 9.51831 2.85726C9.20054 2.18728 8.73772 1.59638 8.16339 1.12734C7.58906 0.658304 6.9176 0.322883 6.19764 0.145376C5.47768 -0.0321323 4.72725 -0.047283 4.00072 0.101021C2.8506 0.360567 1.82498 1.00837 1.09646 1.93541C0.367943 2.86245 -0.01901 4.01214 0.000718736 5.19102V15.001C-0.00720492 15.9992 0.198468 16.9876 0.603935 17.8998C1.0094 18.812 1.60529 19.6269 2.3516 20.2899C3.09791 20.9529 3.9774 21.4486 4.93103 21.7437C5.88466 22.0388 6.89039 22.1265 7.88072 22.001Z" fill="#0E1317"/>
</svg>
