<svg width="162" height="18" viewBox="0 0 162 18" fill="none" xmlns="http://www.w3.org/2000/svg">
<path fill-rule="evenodd" clip-rule="evenodd" d="M11.1832 7.93008L8.54886 14.3264L3.03186 0.112044H0L7.28142 17.5124H9.66713L12.9724 9.71911L16.2529 17.5124H18.6386L25.92 0.112044H22.8627L17.3712 14.3264L14.7369 7.93008L17.7439 0.185586H15.1346L12.9476 6.09202L10.7854 0.185586H8.15233L11.1832 7.93008ZM60.9479 10.1969C60.3507 9.41482 59.5072 8.85031 58.5497 8.5918C59.3386 8.2526 59.9963 7.67275 60.4261 6.9375C60.8591 6.21376 61.0862 5.38827 61.0835 4.54794C61.082 4.00068 60.9853 3.45774 60.7978 2.94268C60.6151 2.42589 60.3417 1.9448 59.9901 1.52138C59.64 1.103 59.2092 0.757288 58.7227 0.504294C58.2096 0.239218 57.6377 0.104405 57.0585 0.112044H47.963V17.5124H56.3877C57.1035 17.5169 57.8158 17.4136 58.5 17.2061C59.1264 17.0206 59.7122 16.7214 60.2272 16.3237C60.7143 15.9419 61.1126 15.4613 61.3952 14.9146C61.6921 14.3293 61.8413 13.6819 61.8301 13.0275C61.8608 12.0138 61.5506 11.0186 60.9479 10.1969ZM58.7734 13.53C58.6467 13.8396 58.4611 14.1224 58.2267 14.3633C57.9928 14.6016 57.7143 14.793 57.4066 14.927C57.0858 15.0671 56.7385 15.1381 56.3877 15.1352H50.7464V9.81717H56.5617C56.8979 9.81446 57.2299 9.88998 57.5309 10.0376C57.8222 10.1794 58.0803 10.3795 58.2888 10.6252C58.5024 10.8814 58.6704 11.1715 58.7858 11.483C58.9105 11.8122 58.9737 12.1609 58.9723 12.5123C58.9744 12.8611 58.9068 13.2069 58.7734 13.53ZM56.0148 2.48944C56.3255 2.48221 56.634 2.54334 56.9177 2.66839C57.2014 2.79344 57.4534 2.97926 57.6552 3.21235C58.0979 3.72753 58.3285 4.38779 58.3013 5.06257C58.3057 5.41425 58.2425 5.76356 58.115 6.09202C57.9987 6.39031 57.8209 6.66158 57.5929 6.88868C57.3703 7.10841 57.1094 7.28685 56.8227 7.41546C56.5219 7.54843 56.1954 7.61528 55.8659 7.61138H50.7464V2.48944H56.0148ZM84.8681 17.5124V0.112044H81.8849L76.045 10.749L70.2048 0.112044H67.2226V17.5124H70.0059V4.98902L75.2745 14.4735H76.8154L82.0592 4.98902V17.5124H84.8681ZM115.063 17.5124C116.277 17.5294 117.483 17.3173 118.617 16.8874C119.637 16.4969 120.561 15.8952 121.326 15.1229C122.088 14.3361 122.676 13.4013 123.053 12.3781C123.473 11.2271 123.679 10.0109 123.662 8.78772C123.669 7.64241 123.485 6.50377 123.115 5.41794C122.771 4.39824 122.216 3.45962 121.487 2.66085C120.738 1.85723 119.823 1.22198 118.803 0.798276C117.618 0.318915 116.345 0.0853247 115.064 0.112044H108.799V17.5124H115.062H115.063ZM120.455 11.2875C120.226 12.0198 119.85 12.6991 119.349 13.2848C118.853 13.8543 118.233 14.3066 117.535 14.6082C116.755 14.9388 115.912 15.1017 115.063 15.0862H111.582V2.53828H115.062C115.897 2.52387 116.727 2.68262 117.497 3.00427C118.188 3.29988 118.807 3.73866 119.311 4.29084C119.822 4.864 120.207 5.53584 120.441 6.26363C120.705 7.07939 120.835 7.93161 120.826 8.78792C120.834 9.63508 120.709 10.4783 120.454 11.2875H120.455ZM131.862 17.5124V0.112044H129.077V17.5124H131.861H131.862ZM136.509 17.5124H139.465L141.304 12.7825H148.113L149.977 17.5124H152.91L145.951 0.112044H143.516L136.509 17.5124ZM141.802 10.7484L144.735 3.27354L147.568 10.7484H141.801H141.802ZM30.3411 0H42.6683V2.4313H30.3411V0ZM30.3411 7.4965H41.2301V9.9278H30.3411V7.4965ZM30.3411 14.993H42.6683V17.4243H30.3411V14.993ZM91.3604 0H103.688V2.4313H91.3604V0ZM91.3604 7.4965H102.249V9.9278H91.3604V7.4965ZM91.3604 14.993H103.688V17.4243H91.3604V14.993Z" fill="white"/>
<rect x="157.622" y="13.1299" width="4.37834" height="4.37834" fill="white"/>
</svg>
