<svg width="60" height="58" viewBox="0 0 60 58" fill="none" xmlns="http://www.w3.org/2000/svg">
<path d="M30.0012 49.2099C41.1499 49.2099 50.2154 40.1437 50.2154 28.9957C50.2154 17.8471 41.1497 8.78162 30.0012 8.78162C18.8528 8.78162 9.78711 17.8473 9.78711 28.9957C9.78711 40.1442 18.8528 49.2099 30.0012 49.2099ZM30.0012 10.6522C40.1146 10.6522 48.3448 18.8828 48.3448 28.9957C48.3448 39.1087 40.1142 47.3393 30.0012 47.3393C19.8883 47.3393 11.6577 39.1087 11.6577 28.9957C11.6577 18.8828 19.8883 10.6522 30.0012 10.6522Z" fill="white" stroke="#111313" stroke-width="0.5"/>
<path d="M19.8193 20.1384C20.0002 20.3193 20.2433 20.4128 20.4803 20.4128C20.7174 20.4128 20.9605 20.3193 21.1414 20.1384C21.5094 19.7704 21.5094 19.1781 21.1414 18.8167L19.1338 16.809C18.7659 16.4411 18.1735 16.4411 17.8121 16.809C17.4441 17.177 17.4441 17.7694 17.8121 18.1308L19.8193 20.1384Z" fill="white" stroke="#111313" stroke-width="0.5"/>
<path d="M40.8627 41.1816C41.0436 41.3625 41.2868 41.456 41.5238 41.456C41.7608 41.456 42.004 41.3625 42.1849 41.1816C42.5528 40.8137 42.5528 40.2213 42.1849 39.8599L40.1773 37.8523C39.8093 37.4843 39.217 37.4843 38.8556 37.8523C38.4876 38.2202 38.4876 38.8126 38.8556 39.174L40.8627 41.1816Z" fill="white" stroke="#111313" stroke-width="0.5"/>
<path d="M17.4757 28.9958C17.4757 28.4782 17.0578 28.0607 16.5406 28.0607H13.7036C13.1861 28.0607 12.7686 28.4786 12.7686 28.9958C12.7686 29.5133 13.1865 29.9309 13.7036 29.9309H16.5406C17.0578 29.9309 17.4757 29.5133 17.4757 28.9958Z" fill="white" stroke="#111313" stroke-width="0.5"/>
<path d="M43.4624 29.9309H46.2994C46.817 29.9309 47.2345 29.5129 47.2345 28.9958C47.2345 28.4782 46.8166 28.0607 46.2994 28.0607H43.4624C42.9449 28.0607 42.5273 28.4786 42.5273 28.9958C42.5273 29.5133 42.9453 29.9309 43.4624 29.9309Z" fill="white" stroke="#111313" stroke-width="0.5"/>
<path d="M18.4786 41.456C18.7156 41.456 18.9588 41.3625 19.1397 41.1816L21.1473 39.174C21.5153 38.806 21.5153 38.2137 21.1473 37.8523C20.7793 37.4843 20.187 37.4843 19.8256 37.8523L17.818 39.8599C17.45 40.2278 17.45 40.8202 17.818 41.1816C17.9985 41.3691 18.2355 41.456 18.4786 41.456H18.4786Z" fill="white" stroke="#111313" stroke-width="0.5"/>
<path d="M39.5221 20.4099C39.7591 20.4099 40.0022 20.3164 40.1832 20.1355L42.1908 18.1279C42.5587 17.7599 42.5587 17.1675 42.1908 16.8061C41.8228 16.4382 41.2304 16.4382 40.869 16.8061L38.8614 18.8137C38.4935 19.1817 38.4935 19.774 38.8614 20.1355C39.0419 20.3229 39.2789 20.4099 39.5221 20.4099H39.5221Z" fill="white" stroke="#111313" stroke-width="0.5"/>
<path d="M30.0015 41.5215C29.4839 41.5215 29.0664 41.9395 29.0664 42.4566V45.2936C29.0664 45.8111 29.4844 46.2287 30.0015 46.2287C30.5191 46.2287 30.9366 45.8107 30.9366 45.2936V42.4566C30.9366 41.9395 30.5191 41.5215 30.0015 41.5215Z" fill="white" stroke="#111313" stroke-width="0.5"/>
<path d="M30.0015 16.4704C30.5191 16.4704 30.9366 16.0524 30.9366 15.5353V12.6983C30.9366 12.1807 30.5186 11.7632 30.0015 11.7632C29.4839 11.7632 29.0664 12.1812 29.0664 12.6983V15.5353C29.0664 16.0524 29.4839 16.4704 30.0015 16.4704Z" fill="white" stroke="#111313" stroke-width="0.5"/>
<path d="M36.6733 36.8029C36.9103 36.8029 37.1535 36.7094 37.3344 36.5285C37.7023 36.1605 37.7023 35.5681 37.3344 35.2067L30.7374 28.6097V21.489C30.7374 20.9715 30.3194 20.554 29.8023 20.554C29.2847 20.554 28.8672 20.9719 28.8672 21.489V29.3826L36.0127 36.5281C36.1993 36.7156 36.4363 36.803 36.6733 36.803L36.6733 36.8029Z" fill="white" stroke="#111313" stroke-width="0.5"/>
<path d="M56.4262 34.5854C55.9213 34.4605 55.4163 34.7663 55.2916 35.2712C52.4172 46.9621 41.9862 55.1235 29.9268 55.1235C18.1301 55.1235 7.8855 47.2983 4.75568 36.0061L7.1748 37.858C7.58624 38.1699 8.17253 38.0951 8.48441 37.6836C8.79625 37.2722 8.72144 36.6859 8.31 36.374L3.32177 32.558C3.05994 32.3523 2.7046 32.3088 2.39275 32.4397C2.08743 32.5706 1.8691 32.8512 1.82517 33.1817L1.00837 39.4107C0.939655 39.9222 1.30151 40.3898 1.81256 40.458C1.85606 40.4641 1.89346 40.4641 1.93739 40.4641C2.39885 40.4641 2.80421 40.1214 2.8664 39.6473L3.17825 37.2779C6.77593 48.9632 17.5503 56.9932 29.927 56.9932C42.846 56.9932 54.0259 48.2455 57.1123 35.7191C57.2371 35.2141 56.9253 34.7092 56.4264 34.5844L56.4262 34.5854Z" fill="white" stroke="#111313" stroke-width="0.5"/>
<path d="M58.1777 16.6381C57.6662 16.5694 57.1987 16.9313 57.1304 17.4423L56.6937 20.7843C53.1212 9.06227 42.3284 1 29.926 1C17.007 1 5.82718 9.74769 2.74078 22.2741C2.61595 22.773 2.92171 23.284 3.42667 23.4088C3.50148 23.4275 3.57629 23.4336 3.65109 23.4336C4.06906 23.4336 4.45528 23.147 4.5614 22.7229C7.4358 11.032 17.8668 2.87064 29.9262 2.87064C41.2619 2.87064 51.1569 10.0848 54.692 20.6653L52.8279 19.2375C52.4165 18.9256 51.8302 19.0004 51.5183 19.4119C51.2065 19.8233 51.2813 20.4096 51.6927 20.7215L56.6809 24.5375C56.8493 24.6623 57.0489 24.7306 57.2485 24.7306C57.3668 24.7306 57.4917 24.7058 57.61 24.6619C57.9218 24.531 58.1336 24.2504 58.1775 23.9199L58.9943 17.6909C59.05 17.1737 58.6947 16.7062 58.1771 16.6375L58.1777 16.6381Z" fill="white" stroke="#111313" stroke-width="0.5"/>
</svg>
