<svg width="59" height="50" viewBox="0 0 59 50" fill="none" xmlns="http://www.w3.org/2000/svg">
<path d="M58.0001 25.3202C58.0001 14.1584 51.3371 7.49426 40.1753 7.49426C28.8478 7.49426 22.3506 13.9918 22.3506 25.3202C22.3506 26.1814 22.3979 27.0036 22.4682 27.8066C23.1996 27.8048 24.055 27.7823 24.9696 27.7167C24.8965 26.9469 24.8459 26.156 24.8459 25.3202C24.8459 15.4347 30.2898 9.99028 40.1746 9.99028C49.9163 9.99028 55.5034 15.578 55.5034 25.3202C55.5034 31.9429 53.1819 36.4975 48.6039 38.8558L47.828 39.2545L48.3462 43.3672L43.9584 40.3527L43.4777 40.4202C42.3959 40.572 41.2836 40.6493 40.1741 40.6493C33.2718 40.6493 28.6099 38.1376 26.3735 33.3023C25.6018 33.3337 24.6938 33.3571 23.6831 33.359C26.0938 39.7211 31.7358 43.1447 40.1741 43.1447C41.2339 43.1447 42.2965 43.0805 43.3386 42.9544L51.5176 48.574L50.5187 40.6479C55.4162 37.7562 57.9987 32.4783 57.9987 25.3204L58.0001 25.3202Z" fill="white" stroke="#1B1D1D"/>
<path d="M42.7468 16.6062C42.7445 15.6607 42.6873 13.6807 42.3434 11.532C41.6739 11.495 40.8024 11.4716 39.8494 11.5044C40.8324 16.9247 40.1423 24.5086 37.7743 26.8763C35.9157 28.7354 25.996 29.8158 16.5408 29.1879L16.1093 29.1594L11.26 32.4905L11.7379 28.7011L10.5801 28.4865C7.23012 27.8643 6.22379 27.1526 5.94636 26.8756C4.47754 25.4068 3.49269 21.2912 3.49593 16.635C3.49921 11.9821 4.48405 7.87353 5.94636 6.41178C7.58251 4.77564 14.7204 3.95762 21.8604 3.95762C28.7749 3.95762 35.6755 4.72789 37.5886 6.26281C38.1231 6.16442 39.1183 6.03932 40.6017 6.06697C40.2924 5.53566 39.9424 5.05167 39.5381 4.64732C35.2435 0.352757 8.47762 0.351438 4.18126 4.64732C1.23521 7.59336 1.00133 14.566 1.00001 16.6328C0.998601 18.7023 1.22396 25.6823 4.18126 28.6403C5.03772 29.4963 6.60963 30.1757 8.96867 30.7041L8.08643 37.6955L16.8086 31.7049C24.1644 32.1468 36.4732 31.704 39.5378 28.6403C42.5368 25.6426 42.7529 18.6719 42.7472 16.6064L42.7468 16.6062Z" fill="white" stroke="#1B1D1D"/>
</svg>
