<svg width="56" height="58" viewBox="0 0 56 58" fill="none" xmlns="http://www.w3.org/2000/svg">
<path d="M38.1129 0.764753C35.0996 -0.864054 31.3536 0.194703 29.7248 3.12623L5.21215 47.1021C5.21215 47.1834 5.13086 47.2652 5.13086 47.3465V47.4277V47.509L6.02658 57.2003C6.02658 57.4447 6.18967 57.6073 6.35225 57.6891C6.43354 57.7704 6.59663 57.7704 6.67792 57.7704C6.75921 57.7704 6.84101 57.7704 6.9223 57.6891L15.6361 53.3731C15.7174 53.2918 15.7992 53.21 15.8804 53.1287L38.7636 12.0846L40.3924 9.15309C42.1839 6.13931 41.1255 2.39338 38.1122 0.764437L38.1129 0.764753ZM37.3797 12.0031L15.0659 51.9072L11.4013 49.8714L33.6339 9.96722L37.3797 12.0031ZM10.3425 49.2202L6.59652 47.1844L28.9103 7.28025L32.575 9.31609L10.3425 49.2202ZM6.51525 48.5689L14.0076 52.7223L7.16703 56.0613L6.51525 48.5689ZM39.416 8.50246L38.1128 10.8639L33.7973 8.50246L29.5626 6.14098L30.8658 3.77951C32.169 1.41803 35.1819 0.521761 37.5437 1.82494C39.9047 3.1276 40.7192 6.14046 39.416 8.50246Z" fill="white"/>
<path d="M12.7036 21.3665V9.96567C12.7036 9.64 12.3779 9.31433 12.0522 9.31433H0.651341C0.325671 9.31433 0 9.64 0 9.96567V21.3665C0 21.6922 0.325671 22.0179 0.651341 22.0179H12.0522C12.4592 21.9366 12.7036 21.6927 12.7036 21.3665ZM11.4004 20.7152H1.30216V10.617H11.4004V20.7152Z" fill="white"/>
<path d="M33.9587 41.3214C30.4572 41.3214 27.6064 44.1716 27.6064 47.6737C27.6064 51.1753 30.4566 54.026 33.9587 54.026C37.4603 54.026 40.311 51.1758 40.311 47.6737C40.2292 44.0903 37.4608 41.3214 33.9587 41.3214V41.3214ZM33.9587 52.7228C31.1898 52.7228 28.9096 50.4426 28.9096 47.6737C28.9096 44.9048 31.1898 42.6246 33.9587 42.6246C36.7276 42.6246 39.0078 44.8235 39.0078 47.5924C39.0078 50.3608 36.8089 52.641 33.9587 52.7228V52.7228Z" fill="white"/>
<path d="M55.8651 22.3442C55.7839 22.1811 55.5395 22.0186 55.2951 22.0186H42.5093C42.1836 22.0186 41.8579 22.2629 41.8579 22.6699C41.8579 22.833 41.8579 22.9143 41.9392 22.9956L48.3728 33.5008C48.5359 33.8265 48.9428 33.9078 49.2685 33.7452L49.5129 33.5008L55.9464 23.0768C56.0277 22.833 56.0277 22.5886 55.8651 22.3442L55.8651 22.3442ZM48.9427 31.9537L43.6493 23.403H54.2363L48.9427 31.9537Z" fill="white"/>
</svg>
