<svg width="56" height="56" viewBox="0 0 56 56" fill="none" xmlns="http://www.w3.org/2000/svg">
<path d="M34.6959 23.0008L52.084 12.9616C52.3078 12.8324 52.4708 12.6194 52.5373 12.3701C52.6042 12.1208 52.569 11.8549 52.4398 11.6311C48.678 5.12959 41.6923 1.08997 34.209 1.08997C33.6715 1.08997 33.2358 1.52566 33.2358 2.06312V22.1572C33.2358 22.5051 33.4211 22.8264 33.7223 23.0001C34.0198 23.1718 34.3914 23.1761 34.6958 23.0001L34.6959 23.0008ZM35.1823 3.06237C41.2787 3.37682 46.9098 6.63421 50.2457 11.7758L35.1823 20.473V3.06237Z" fill="white" stroke="#101212"/>
<path d="M49.3238 44.9566C49.6011 44.9566 49.8775 44.8383 50.0699 44.6094C53.2493 40.8217 55.0003 36.0154 55.0003 31.0768C55.0003 27.3974 54.0196 23.7571 52.1645 20.5504C51.8954 20.0855 51.2996 19.9265 50.8355 20.1949L33.4465 30.2341C33.1713 30.3931 32.9914 30.6759 32.9637 30.9925C32.936 31.3091 33.0644 31.6189 33.3076 31.8225L48.6989 44.7289C48.8813 44.8821 49.1033 44.9566 49.3239 44.9566L49.3238 44.9566ZM50.945 22.3785C52.3272 25.0737 53.0539 28.0608 53.0539 31.0762C53.0539 35.2342 51.6864 39.2877 49.1849 42.5973L35.6237 31.2245L50.945 22.3785Z" fill="white" stroke="#101212"/>
<path d="M5.10873 44.7715L11.1486 50.8114C11.4645 51.1283 11.9571 51.1881 12.3399 50.9564L16.4866 48.4513C17.2648 48.8409 18.0905 49.1881 18.9519 49.4885L20.1071 54.1667C20.2143 54.6009 20.6043 54.9064 21.0519 54.9064C23.4077 54.5117 33.4453 56.9193 41.4692 47.3706C41.6355 47.1723 41.7164 46.9169 41.6934 46.6596C41.6711 46.402 41.547 46.1646 41.3494 45.9984L26.3017 33.3858L26.3013 19.4516V7.22401C26.3013 6.68651 25.8656 6.25085 25.3282 6.25085H21.0511C20.6035 6.25085 20.2135 6.5563 20.1059 6.99128L18.9528 11.6745C18.0904 11.9667 17.2554 12.316 16.46 12.7164L12.3412 10.2156C11.9581 9.98211 11.4652 10.0426 11.1471 10.3595L5.10756 16.4124C4.79204 16.729 4.73232 17.2198 4.96293 17.6022L7.458 21.7411C7.05469 22.5593 6.71254 23.3835 6.43584 24.202L1.7433 25.3436C1.30725 25.4498 1 25.8401 1 26.2892V34.8824C1 35.3314 1.30761 35.7222 1.74366 35.828L6.44771 36.9692C6.7341 37.8269 7.07156 38.6486 7.45651 39.4222L4.96145 43.5838C4.73227 43.9669 4.79308 44.4569 5.1086 44.7724L5.10873 44.7715ZM26.3025 35.926L39.3332 46.8485C35.9308 50.5081 31.271 52.6855 26.3025 52.9377V35.926ZM24.3554 40.6736C19.2181 40.1818 15.1872 35.8422 15.1872 30.5782C15.1872 25.3082 19.2181 20.9627 24.3554 20.4709V40.6736ZM9.40523 39.957C9.58153 39.6627 9.59016 39.2979 9.42754 38.9956C8.91306 38.0386 8.4799 36.9866 8.14059 35.8688C8.04022 35.5389 7.77326 35.287 7.43866 35.2061L2.94654 34.116V27.0535L7.42651 25.9641C7.7611 25.8828 8.02805 25.6306 8.12771 25.3007C8.44756 24.2458 8.87425 23.2158 9.43189 22.1523C9.58947 21.8511 9.57868 21.4896 9.40347 21.1982L7.02242 17.2485L11.9848 12.2757L15.9194 14.6649C16.2155 14.8459 16.5842 14.8531 16.8893 14.6887C17.8773 14.1519 18.9422 13.7061 20.055 13.3632C20.3813 13.2629 20.6317 12.9977 20.7137 12.666L21.8142 8.19653H24.3554V18.5268C18.1445 19.0258 13.2413 24.2347 13.2413 30.5775C13.2413 36.9143 18.1451 42.1171 24.3554 42.6153V52.9585H21.8142L20.7133 48.5012C20.6324 48.1738 20.3877 47.9115 20.0672 47.8082C18.941 47.4452 17.8794 46.9977 16.9119 46.4774C16.6083 46.3148 16.242 46.3238 15.9477 46.5015L11.9862 48.8944L7.02203 43.9302L9.40523 39.957Z" fill="white" stroke="#101212"/>
</svg>
