<svg width="12" height="17" viewBox="0 0 12 17" fill="none" xmlns="http://www.w3.org/2000/svg">
<path fill-rule="evenodd" clip-rule="evenodd" d="M6.69512 16.9572C8.02913 16.7584 9.24464 16.0793 10.1132 15.0475C10.9818 14.0157 11.4437 12.7022 11.4121 11.3539V4.74858C11.4121 4.54416 11.3309 4.34812 11.1863 4.20358C11.0418 4.05903 10.8457 3.97783 10.6413 3.97783C10.4369 3.97783 10.2409 4.05903 10.0963 4.20358C9.95179 4.34812 9.87059 4.54416 9.87059 4.74858V11.562C9.8707 12.1335 9.7437 12.6979 9.49878 13.2143C9.25385 13.7306 8.89714 14.1861 8.45448 14.5476C8.01182 14.9091 7.49429 15.1676 6.93938 15.3044C6.38448 15.4412 5.80609 15.4529 5.24612 15.3386C4.35967 15.1386 3.56918 14.6393 3.00768 13.9248C2.44617 13.2103 2.14793 12.3241 2.16314 11.4155V3.85451C2.16283 3.51411 2.23768 3.17784 2.38235 2.86971C2.52702 2.56159 2.73793 2.2892 3.00004 2.07201C3.26214 1.85481 3.56897 1.69817 3.89861 1.61326C4.22825 1.52835 4.57257 1.51727 4.90699 1.58081C5.44911 1.69879 5.93327 2.00175 6.27642 2.43771C6.61956 2.87367 6.8003 3.41546 6.78761 3.97012V10.0205C6.78761 10.2249 6.7064 10.4209 6.56186 10.5655C6.41732 10.71 6.22128 10.7912 6.01686 10.7912C5.81245 10.7912 5.61641 10.71 5.47186 10.5655C5.32732 10.4209 5.24612 10.2249 5.24612 10.0205V5.396C5.24612 5.19159 5.16491 4.99554 5.02037 4.851C4.87583 4.70646 4.67979 4.62526 4.47537 4.62526C4.27096 4.62526 4.07492 4.70646 3.93037 4.851C3.78583 4.99554 3.70463 5.19159 3.70463 5.396V10.0205C3.69858 10.3641 3.76921 10.7048 3.91138 11.0177C4.05355 11.3306 4.26368 11.6078 4.5265 11.8293C4.78931 12.0508 5.09819 12.2109 5.43067 12.298C5.76314 12.385 6.11084 12.3969 6.44848 12.3327C6.99802 12.215 7.48821 11.9067 7.83237 11.4624C8.17653 11.0181 8.35248 10.4664 8.3291 9.90486V3.85451C8.32921 3.28299 8.20221 2.7186 7.95729 2.20222C7.71236 1.68584 7.35565 1.2304 6.91299 0.868891C6.47032 0.507384 5.9528 0.248861 5.39789 0.112047C4.84299 -0.0247658 4.2646 -0.0364432 3.70463 0.0778611C2.81818 0.277905 2.02769 0.777193 1.46619 1.4917C0.904684 2.20622 0.606442 3.09234 0.621648 4.00095V11.562C0.615541 12.3313 0.774062 13.0931 1.08657 13.7962C1.39909 14.4993 1.85836 15.1274 2.43358 15.6383C3.0088 16.1493 3.68665 16.5314 4.42166 16.7588C5.15667 16.9863 5.93182 17.0539 6.69512 16.9572Z" fill="white"/>
</svg>
